<?xml version="1.0" encoding="UTF-8"?>
<!DOCTYPE svg PUBLIC "-//W3C//DTD SVG 1.1//EN" "http://www.w3.org/Graphics/SVG/1.1/DTD/svg11.dtd">
<svg xmlns="http://www.w3.org/2000/svg" version="1.1" width="512px" height="512px" style="shape-rendering:geometricPrecision; text-rendering:geometricPrecision; image-rendering:optimizeQuality; fill-rule:evenodd; clip-rule:evenodd" xmlns:xlink="http://www.w3.org/1999/xlink">
<g><path style="opacity:0.987" fill="#030c57" d="M 104.5,101.5 C 122.396,100.02 134.229,107.687 140,124.5C 142.737,144.205 134.57,156.705 115.5,162C 96.0011,163.507 84.1678,154.674 80,135.5C 79.5519,117.803 87.7185,106.47 104.5,101.5 Z"/></g>
<g><path style="opacity:0.988" fill="#030c57" d="M 204.5,101.5 C 271.834,101.333 339.167,101.5 406.5,102C 425.665,107.82 433.499,120.653 430,140.5C 425.966,151.869 418.132,159.036 406.5,162C 339.167,162.667 271.833,162.667 204.5,162C 185.317,156.139 177.484,143.306 181,123.5C 185.015,111.938 192.848,104.604 204.5,101.5 Z"/></g>
<g><path style="opacity:0.99" fill="#030c57" d="M 102.5,225.5 C 129.143,223.643 141.643,235.977 140,262.5C 134.044,280.572 121.544,288.072 102.5,285C 88.0153,280.549 80.3487,270.716 79.5,255.5C 80.4751,240.21 88.1418,230.21 102.5,225.5 Z"/></g>
<g><path style="opacity:0.998" fill="#030c57" d="M 202.5,225.5 C 271.167,225.333 339.834,225.5 408.5,226C 427.98,233.461 434.813,247.294 429,267.5C 424.918,276.584 418.085,282.417 408.5,285C 339.833,285.667 271.167,285.667 202.5,285C 183.02,277.539 176.187,263.706 182,243.5C 186.256,234.402 193.089,228.402 202.5,225.5 Z"/></g>
<g><path style="opacity:0.99" fill="#030c57" d="M 104.5,348.5 C 122.404,347.023 134.237,354.69 140,371.5C 142.636,394.193 132.636,406.86 110,409.5C 95.4686,408.641 85.8019,401.308 81,387.5C 77.6059,367.607 85.4393,354.607 104.5,348.5 Z"/></g>
<g><path style="opacity:0.99" fill="#020c57" d="M 204.5,348.5 C 271.834,348.333 339.167,348.5 406.5,349C 425.683,354.861 433.516,367.694 430,387.5C 426.229,399.131 418.395,406.298 406.5,409C 339.167,409.667 271.833,409.667 204.5,409C 185.335,403.18 177.501,390.347 181,370.5C 185.212,359.116 193.045,351.783 204.5,348.5 Z"/></g>
</svg>
