<svg viewBox="0 0 32 32" xmlns="http://www.w3.org/2000/svg"><path d="M27 15h-6a1 1 0 0 1-1-1v-3a4 4 0 0 1 8 0v3a1 1 0 0 1-1 1Zm-5-2h4v-2a2 2 0 0 0-4 0Z" fill="#6a9fe8" class="fill-0e6ae0"></path><path d="M21 23a1 1 0 0 1-1-1v-5a1 1 0 0 0-1-1H5a3 3 0 0 0-3 3v3a3 3 0 0 0 3 3h16a1 1 0 0 0 0-2Z" fill="#d8e1ef" class="fill-d8e1ef"></path><path d="M7.85 19.15a.48.48 0 0 0-.7 0l-.65.64-.65-.64a.49.49 0 0 0-.7.7l.64.65-.64.65a.49.49 0 0 0 .7.7l.65-.64.65.64a.49.49 0 1 0 .7-.7l-.64-.65.64-.65a.48.48 0 0 0 0-.7ZM11.85 19.15a.48.48 0 0 0-.7 0l-.65.64-.65-.64a.49.49 0 0 0-.7.7l.64.65-.64.65a.49.49 0 0 0 .7.7l.65-.64.65.64a.49.49 0 1 0 .7-.7l-.64-.65.64-.65a.48.48 0 0 0 0-.7ZM15.21 20.5l.64-.65a.49.49 0 0 0-.7-.7l-.65.64-.65-.64a.49.49 0 0 0-.7.7l.64.65-.64.65a.49.49 0 0 0 .7.7l.65-.64.65.64a.49.49 0 1 0 .7-.7Z" fill="#0f0740" class="fill-0593ff"></path><rect height="12" rx="3" ry="3" width="12" x="18" y="13" fill="#0f0740" class="fill-0593ff"></rect><path d="M26 18a2 2 0 1 0-3 1.72V21a1 1 0 0 0 2 0v-1.28A2 2 0 0 0 26 18Z" fill="#6a9fe8" class="fill-0e6ae0"></path></svg>