<?xml version="1.0" encoding="UTF-8"?>
<!DOCTYPE svg PUBLIC "-//W3C//DTD SVG 1.1//EN" "http://www.w3.org/Graphics/SVG/1.1/DTD/svg11.dtd">
<svg xmlns="http://www.w3.org/2000/svg" version="1.1" width="512px" height="512px" style="shape-rendering:geometricPrecision; text-rendering:geometricPrecision; image-rendering:optimizeQuality; fill-rule:evenodd; clip-rule:evenodd" xmlns:xlink="http://www.w3.org/1999/xlink">
<g><path style="opacity:0.975" fill="#112c54" d="M 118.5,68.5 C 147.542,68.041 176.542,68.541 205.5,70C 230.042,77.2102 244.875,93.3769 250,118.5C 250.667,145.833 250.667,173.167 250,200.5C 244.167,227.667 227.667,244.167 200.5,250C 173.167,250.667 145.833,250.667 118.5,250C 91.3333,244.167 74.8333,227.667 69,200.5C 68.3333,173.167 68.3333,145.833 69,118.5C 75.0139,91.3199 91.5139,74.6532 118.5,68.5 Z M 121.5,101.5 C 146.836,101.333 172.169,101.5 197.5,102C 207.774,105.273 214.274,112.106 217,122.5C 217.667,147.167 217.667,171.833 217,196.5C 214.167,207.333 207.333,214.167 196.5,217C 171.833,217.667 147.167,217.667 122.5,217C 111.667,214.167 104.833,207.333 102,196.5C 101.333,171.833 101.333,147.167 102,122.5C 104.914,112.089 111.414,105.089 121.5,101.5 Z"/></g>
<g><path style="opacity:0.973" fill="#eadc65" d="M 310.5,68.5 C 339.542,68.041 368.542,68.541 397.5,70C 422.042,77.2102 436.875,93.3769 442,118.5C 442.667,145.833 442.667,173.167 442,200.5C 436.167,227.667 419.667,244.167 392.5,250C 365.167,250.667 337.833,250.667 310.5,250C 283.333,244.167 266.833,227.667 261,200.5C 260.333,173.167 260.333,145.833 261,118.5C 267.014,91.3199 283.514,74.6532 310.5,68.5 Z M 313.5,101.5 C 338.836,101.333 364.169,101.5 389.5,102C 399.774,105.273 406.274,112.106 409,122.5C 409.667,147.167 409.667,171.833 409,196.5C 406.167,207.333 399.333,214.167 388.5,217C 363.833,217.667 339.167,217.667 314.5,217C 303.667,214.167 296.833,207.333 294,196.5C 293.333,171.833 293.333,147.167 294,122.5C 296.914,112.089 303.414,105.089 313.5,101.5 Z"/></g>
<g><path style="opacity:0.975" fill="#112c54" d="M 118.5,260.5 C 147.542,260.041 176.542,260.541 205.5,262C 230.042,269.21 244.875,285.377 250,310.5C 250.667,337.833 250.667,365.167 250,392.5C 244.167,419.667 227.667,436.167 200.5,442C 173.167,442.667 145.833,442.667 118.5,442C 91.3333,436.167 74.8333,419.667 69,392.5C 68.3333,365.167 68.3333,337.833 69,310.5C 75.0139,283.32 91.5139,266.653 118.5,260.5 Z M 121.5,293.5 C 146.836,293.333 172.169,293.5 197.5,294C 207.774,297.273 214.274,304.106 217,314.5C 217.667,339.167 217.667,363.833 217,388.5C 214.167,399.333 207.333,406.167 196.5,409C 171.833,409.667 147.167,409.667 122.5,409C 111.667,406.167 104.833,399.333 102,388.5C 101.333,363.833 101.333,339.167 102,314.5C 104.914,304.089 111.414,297.089 121.5,293.5 Z"/></g>
<g><path style="opacity:0.975" fill="#112c54" d="M 310.5,260.5 C 339.542,260.041 368.542,260.541 397.5,262C 422.042,269.21 436.875,285.377 442,310.5C 442.667,337.833 442.667,365.167 442,392.5C 436.167,419.667 419.667,436.167 392.5,442C 365.167,442.667 337.833,442.667 310.5,442C 283.333,436.167 266.833,419.667 261,392.5C 260.333,365.167 260.333,337.833 261,310.5C 267.014,283.32 283.514,266.653 310.5,260.5 Z M 313.5,293.5 C 338.836,293.333 364.169,293.5 389.5,294C 399.774,297.273 406.274,304.106 409,314.5C 409.667,339.167 409.667,363.833 409,388.5C 406.167,399.333 399.333,406.167 388.5,409C 363.833,409.667 339.167,409.667 314.5,409C 303.667,406.167 296.833,399.333 294,388.5C 293.333,363.833 293.333,339.167 294,314.5C 296.914,304.089 303.414,297.089 313.5,293.5 Z"/></g>
</svg>
